<svg width="72" height="65" viewBox="0 0 72 65" fill="none" xmlns="http://www.w3.org/2000/svg">
<path d="M63.2053 1.342e-05L8.79464 1.86731e-06C3.94549 8.37721e-07 -1.3148e-06 5.24669 -2.93073e-06 11.6951L-1.3358e-05 53.3049C-1.49739e-05 59.7533 3.94548 65 8.79463 65L63.2053 65C68.0545 65 72 59.7533 72 53.3049L72 11.6964C72.0009 5.24671 68.0555 1.44498e-05 63.2053 1.342e-05ZM58.908 7.62972L36 27.2558L13.092 7.62971L58.908 7.62972ZM63.2053 57.3716L8.79463 57.3716C7.10876 57.3716 5.73749 55.5468 5.73749 53.3062L5.73751 11.9125L34.23 36.2767C34.2682 36.3085 34.3093 36.3301 34.3485 36.3594C34.3897 36.3899 34.4317 36.4191 34.4738 36.4471C34.6947 36.5984 34.9223 36.7205 35.1547 36.8006C35.1786 36.8095 35.2025 36.8133 35.2264 36.821C35.4817 36.9011 35.7399 36.9507 35.9981 36.9507L36 36.9507C36.0019 36.9507 36.0038 36.9507 36.0038 36.9507C36.262 36.9507 36.5202 36.9023 36.7755 36.821C36.7994 36.8133 36.8233 36.8095 36.8472 36.8006C37.0796 36.7205 37.3062 36.5984 37.5281 36.4471C37.5701 36.4191 37.6122 36.3899 37.6533 36.3594C37.6926 36.3301 37.7337 36.3085 37.7719 36.2767L66.2644 11.9125L66.2644 53.3049C66.2634 55.5468 64.8912 57.3716 63.2053 57.3716Z" fill="#3684DB"/>
</svg>
