<svg width="65" height="63" viewBox="0 0 65 63" fill="none" xmlns="http://www.w3.org/2000/svg">
<path d="M21.4976 50.4591C21.4976 50.7183 21.1996 50.9256 20.8238 50.9256C20.3962 50.9645 20.0981 50.7571 20.0981 50.4591C20.0981 50.1999 20.3962 49.9926 20.772 49.9926C21.1607 49.9537 21.4976 50.1611 21.4976 50.4591ZM17.4676 49.876C17.3769 50.1351 17.6361 50.4332 18.0248 50.5109C18.3617 50.6405 18.7505 50.5109 18.8282 50.2518C18.906 49.9926 18.6598 49.6946 18.271 49.5779C17.9341 49.4872 17.5583 49.6168 17.4676 49.876ZM23.1951 49.6557C22.8194 49.7464 22.5602 49.9926 22.5991 50.2906C22.6379 50.5498 22.9749 50.7183 23.3636 50.6276C23.7394 50.5368 23.9985 50.2906 23.9597 50.0315C23.9208 49.7853 23.5709 49.6168 23.1951 49.6557ZM31.7216 -6.10352e-05C13.7486 -6.10352e-05 0 13.6449 0 31.6179C0 45.9885 9.04481 58.2858 21.9641 62.6139C23.6228 62.9119 24.2059 61.8882 24.2059 61.0459C24.2059 60.2425 24.167 55.8108 24.167 53.0896C24.167 53.0896 15.0963 55.0333 13.1914 49.2281C13.1914 49.2281 11.7142 45.4572 9.58905 44.4854C9.58905 44.4854 6.62163 42.4509 9.79638 42.4898C9.79638 42.4898 13.023 42.749 14.7982 45.833C17.6361 50.8349 22.3917 49.3965 24.2448 48.5413C24.5428 46.468 25.3851 45.0296 26.3181 44.1744C19.0744 43.371 11.766 42.3214 11.766 29.8556C11.766 26.2921 12.7509 24.5039 14.8242 22.2232C14.4872 21.3809 13.3858 17.9081 15.1611 13.4246C17.8693 12.5823 24.1022 16.9233 24.1022 16.9233C26.6939 16.1977 29.4799 15.8219 32.24 15.8219C35 15.8219 37.7861 16.1977 40.3777 16.9233C40.3777 16.9233 46.6106 12.5694 49.3188 13.4246C51.0941 17.9211 49.9927 21.3809 49.6558 22.2232C51.7291 24.5168 52.999 26.305 52.999 29.8556C52.999 42.3602 45.3666 43.358 38.123 44.1744C39.3151 45.1981 40.3259 47.1418 40.3259 50.187C40.3259 54.5539 40.287 59.9574 40.287 61.02C40.287 61.8623 40.8831 62.886 42.5288 62.588C55.4869 58.2858 64.2726 45.9885 64.2726 31.6179C64.2726 13.6449 49.6946 -6.10352e-05 31.7216 -6.10352e-05ZM12.5954 44.6927C12.4269 44.8223 12.4658 45.1203 12.6861 45.3665C12.8934 45.5739 13.1914 45.6646 13.3599 45.4961C13.5283 45.3665 13.4895 45.0685 13.2692 44.8223C13.0618 44.615 12.7638 44.5242 12.5954 44.6927ZM11.1959 43.6431C11.1052 43.8115 11.2347 44.0189 11.4939 44.1485C11.7012 44.278 11.9604 44.2392 12.0511 44.0578C12.1418 43.8893 12.0122 43.682 11.7531 43.5524C11.4939 43.4746 11.2866 43.5135 11.1959 43.6431ZM15.3943 48.2562C15.187 48.4247 15.2647 48.8134 15.5628 49.0596C15.8608 49.3577 16.2366 49.3965 16.4051 49.1892C16.5735 49.0207 16.4958 48.632 16.2366 48.3858C15.9515 48.0877 15.5628 48.0489 15.3943 48.2562ZM13.9171 46.3514C13.7098 46.4809 13.7098 46.8178 13.9171 47.1159C14.1244 47.4139 14.4743 47.5435 14.6427 47.4139C14.8501 47.2455 14.8501 46.9086 14.6427 46.6105C14.4613 46.3125 14.1244 46.1829 13.9171 46.3514Z" fill="#3684DB"/>
</svg>
