<svg width="65" height="65" viewBox="0 0 65 65" fill="none" xmlns="http://www.w3.org/2000/svg">
<g clip-path="url(#clip0_499_20)">
<path d="M32.4999 5.85597C41.1779 5.85597 42.2057 5.889 45.6327 6.04536C48.8014 6.18998 50.5222 6.71943 51.6676 7.16438C53.1845 7.75395 54.2672 8.45834 55.4044 9.59556C56.5417 10.7328 57.246 11.8155 57.8355 13.3324C58.2806 14.4778 58.81 16.1986 58.9546 19.3672C59.111 22.7943 59.144 23.8221 59.144 32.5001C59.144 41.178 59.111 42.2058 58.9546 45.6328C58.81 48.8015 58.2806 50.5224 57.8355 51.6677C57.246 53.1846 56.5417 54.2674 55.4044 55.4046C54.2672 56.5418 53.1845 57.2462 51.6676 57.8356C50.5222 58.2807 48.8014 58.8102 45.6327 58.9548C42.2062 59.1111 41.1784 59.1442 32.4999 59.1442C23.8215 59.1442 22.7937 59.1111 19.3672 58.9548C16.1985 58.8102 14.4776 58.2807 13.3324 57.8356C11.8154 57.2462 10.7326 56.5418 9.59543 55.4046C8.45821 54.2674 7.75383 53.1846 7.16438 51.6677C6.7193 50.5224 6.18985 48.8015 6.04523 45.6329C5.88887 42.2058 5.85585 41.178 5.85585 32.5001C5.85585 23.8221 5.88887 22.7943 6.04523 19.3673C6.18985 16.1986 6.7193 14.4778 7.16438 13.3324C7.75383 11.8155 8.45821 10.7328 9.59543 9.59556C10.7326 8.45834 11.8154 7.75395 13.3324 7.16438C14.4776 6.71943 16.1985 6.18998 19.3671 6.04536C22.7942 5.889 23.822 5.85597 32.4999 5.85597ZM32.4999 0C23.6734 0 22.5668 0.0374126 19.1003 0.195578C15.6409 0.353485 13.2785 0.902805 11.2111 1.70627C9.07397 2.53683 7.26153 3.64811 5.45476 5.45489C3.64799 7.26166 2.5367 9.0741 1.70614 11.2113C0.902676 13.2786 0.353356 15.641 0.195449 19.1004C0.0372836 22.5668 0 23.6735 0 32.5001C0 41.3266 0.0372836 42.4334 0.195449 45.8997C0.353356 49.3591 0.902676 51.7215 1.70614 53.7889C2.5367 55.9259 3.64799 57.7385 5.45476 59.5452C7.26153 61.352 9.07397 62.4633 11.2111 63.2939C13.2785 64.0973 15.6409 64.6466 19.1003 64.8046C22.5668 64.9627 23.6734 65 32.4999 65C41.3265 65 42.4332 64.9627 45.8996 64.8046C49.359 64.6466 51.7214 64.0973 53.7887 63.2939C55.9259 62.4633 57.7383 61.352 59.5451 59.5452C61.3519 57.7385 62.4632 55.926 63.2937 53.7889C64.0972 51.7215 64.6465 49.3591 64.8044 45.8997C64.9626 42.4334 65 41.3266 65 32.5001C65 23.6735 64.9626 22.5668 64.8044 19.1004C64.6465 15.641 64.0972 13.2786 63.2937 11.2113C62.4632 9.0741 61.3519 7.26166 59.5451 5.45489C57.7383 3.64811 55.9259 2.53683 53.7887 1.70627C51.7214 0.902805 49.359 0.353485 45.8996 0.195578C42.4332 0.0374126 41.3265 0 32.4999 0ZM32.4999 15.8108C23.2828 15.8108 15.8107 23.2829 15.8107 32.5001C15.8107 41.7172 23.2828 49.1893 32.4999 49.1893C41.7171 49.1893 49.1892 41.7172 49.1892 32.5001C49.1892 23.2829 41.7171 15.8108 32.4999 15.8108ZM32.4999 43.3335C26.5169 43.3335 21.6665 38.4831 21.6665 32.5001C21.6665 26.517 26.5169 21.6667 32.4999 21.6667C38.483 21.6667 43.3333 26.517 43.3333 32.5001C43.3333 38.4831 38.483 43.3335 32.4999 43.3335ZM53.7485 15.1515C53.7485 17.3054 52.0025 19.0515 49.8485 19.0515C47.6946 19.0515 45.9485 17.3054 45.9485 15.1515C45.9485 12.9975 47.6946 11.2515 49.8485 11.2515C52.0025 11.2515 53.7485 12.9975 53.7485 15.1515Z" fill="#3684DB"/>
</g>
<defs>
<clipPath id="clip0_499_20">
<rect width="65" height="65" fill="white"/>
</clipPath>
</defs>
</svg>
