<svg width="65" height="65" viewBox="0 0 65 65" fill="none" xmlns="http://www.w3.org/2000/svg">
<g clip-path="url(#clip0_499_12)">
<path fill-rule="evenodd" clip-rule="evenodd" d="M35.1999 29.1928V29.0978C35.1804 29.1297 35.1536 29.1616 35.1367 29.1928H35.1999Z" fill="#3684DB"/>
<path fill-rule="evenodd" clip-rule="evenodd" d="M0 0V65H65V0H0ZM20.2174 54.0003H10.5737V24.9866H20.2174V54.0003ZM15.3956 21.0266H15.3319C12.0969 21.0266 10 18.7979 10 16.0121C10 13.1653 12.1581 10.9997 15.4587 10.9997C18.76 10.9997 20.7887 13.1653 20.8519 16.0121C20.8519 18.7979 18.76 21.0266 15.3956 21.0266ZM55 54.0003H45.3537V38.4779C45.3537 34.5791 43.96 31.9179 40.4687 31.9179C37.8024 31.9179 36.218 33.7097 35.52 35.4454C35.2663 36.0654 35.2 36.9273 35.2 37.7967V54.0004H25.5519C25.5519 54.0004 25.6811 27.7086 25.5519 24.9867H35.2V29.098C36.4819 27.1256 38.7694 24.3056 43.8937 24.3056C50.2419 24.3056 55 28.4513 55 37.3624V54.0003Z" fill="#3684DB"/>
</g>
<defs>
<clipPath id="clip0_499_12">
<rect width="65" height="65" rx="10" fill="white"/>
</clipPath>
</defs>
</svg>
